<?xml version="1.0" encoding="utf-8" ?>
<svg xmlns="http://www.w3.org/2000/svg" xmlns:xlink="http://www.w3.org/1999/xlink" width="512" height="512">
	<path fill="#FFCDB2" transform="scale(0.5 0.5)" d="M-0 361.638L0 -0L57.1997 0L72.304 0L454.502 0L1024 0L1024 1024L530.862 1024L454.773 1024L-0 1024L0 905.501L-0 871.12L0 866.866L0 852.109L-0 839.827L0 821.532L0 777.006L0 610.57L0 598.577L0 491.699L-0 361.638Z"/>
	<path fill="#FFB4A2" transform="scale(0.5 0.5)" d="M436.509 858.288L436.884 857.48C437.73 855.816 440.782 849.766 442.25 849.245C442.499 851.807 441.48 854.023 440.598 856.369C439.244 857.158 437.986 857.762 436.509 858.288Z"/>
	<path fill="#FFB4A2" transform="scale(0.5 0.5)" d="M772.569 420.25L773.729 419.937L778.576 426C778.462 426.724 778.178 426.832 777.686 427.348L776.315 426.25L773.884 426.919L765.875 429.012C767.934 425.064 768.904 422.916 772.569 420.25Z"/>
	<path fill="#4D343D" transform="scale(0.5 0.5)" d="M636.022 406.924C641.262 408.291 643.269 410.827 646.011 415.223L638.429 417.064C637.771 416.77 637.211 416.308 636.623 415.893C634.971 412.792 634.663 411.289 634.798 407.75L636.022 406.924Z"/>
	<path fill="#FFFAE2" transform="scale(0.5 0.5)" d="M442.73 837.25L443.734 837.144L444.656 838L444.25 838.946C437.32 840.989 429.106 848.02 424.688 853.71C422.184 856.934 420.322 860.349 417.385 863.25L416.623 863.75L416.173 863C423.318 851.612 429.476 842.208 442.73 837.25Z"/>
	<path fill="#6D6875" transform="scale(0.5 0.5)" d="M504.602 354.395L520.452 350.756C515.79 353.417 510.312 354.735 505.234 356.418L483.342 363.866C479.608 365.102 475.709 365.971 472.04 367.368L470.579 365.105L504.602 354.395Z"/>
	<path fill="white" transform="scale(0.5 0.5)" d="M675.471 416.611C677.601 417.233 678.973 417.61 680.517 419.25C681.461 421.679 681.45 424.563 681.593 427.149C681.646 428.107 681.554 429.669 681.976 430.498C682.661 431.845 685 433.871 686.145 434.839C684.761 436.482 682.61 437.49 680.775 438.572C678.438 433.26 676.934 428.328 675.926 422.599C675.578 420.621 675.011 418.599 675.471 416.611Z"/>
	<path fill="#E5989B" transform="scale(0.5 0.5)" d="M636.219 346.987C643.275 352.726 648.606 360.177 655.591 365.988C659.505 369.245 663.71 372.204 667.965 374.995C670.009 376.336 674.622 378.485 675.964 380.234L674.021 381.247C672.397 380.994 669.647 378.728 668.244 377.759C656.785 369.853 645.518 360.137 635.989 350.012L636.219 346.987Z"/>
	<path fill="#FFB4A2" transform="scale(0.5 0.5)" d="M413.382 878.524C412.823 875.989 413.751 874.395 415.098 872.294C419.602 865.269 426.848 862.27 433.25 857.318L433.912 857.75C433.276 860.177 430.84 862.18 429.179 864.002L420.59 873.758C419.218 875.391 417.399 878.447 415.733 879.653L414.946 880.086L413.382 878.524Z"/>
	<path fill="#E3676A" transform="scale(0.5 0.5)" d="M691.062 469.25L691.579 469.375L691.596 470.006L684.295 478.693C682.44 480.943 679.927 484.634 676.948 485.303C674.796 485.787 673.361 485.288 671.538 484.176C670.33 483.118 669.803 482.454 669.126 481C671.694 477.342 681.16 475.749 685.25 473.453C687.296 472.304 689.21 470.691 691.062 469.25Z"/>
	<path fill="#E5989B" transform="scale(0.5 0.5)" d="M778.487 401.723C781.229 401.003 787.526 399.375 790.142 401.067L790.781 401.534C794.235 406.215 794.191 410.43 793.402 416.001C793.239 417.149 792.975 418.249 792.602 419.346C792.014 416.209 792.001 413.253 791.692 410.109C791.531 408.468 791.043 406.571 791.532 404.983L789.25 402.999C786.354 402.36 783.421 402.794 780.491 403.029C780.037 403.236 779.662 403.377 779.268 403.715C777.179 405.512 777.6 409.35 776.956 411.75C776.677 412.789 776.211 413.616 775.25 414.096L774.365 412.75L773.5 412.588C769.382 415.833 767.111 420.557 762.938 423.88L763.731 421.716C764.915 418.977 766.912 416.656 768.395 414.082C770.151 411.033 771.858 406.162 774.385 403.782C775.406 402.821 777.189 402.268 778.487 401.723Z"/>
	<path fill="white" transform="scale(0.5 0.5)" d="M365.182 871.655C367.104 870.128 369.18 870.471 371.51 870.13C374.914 869.632 378.287 868.976 381.75 869.582C382.919 869.786 383.777 870.209 384.813 870.75L385.715 871.21C388.75 872.776 391.465 874.809 394.12 876.943L393.908 877.59L393.904 877.703C388.69 876.887 383.521 877.009 378.266 877.043C376.616 877.053 373.571 877.524 372.093 877.094C369.85 876.44 366.892 873.251 365.182 871.655Z"/>
	<path fill="#4D343D" transform="scale(0.5 0.5)" d="M679.181 386.377L683.937 386.761L683.856 387.756L682 388.928C677.818 391.561 674.796 394.874 671.508 398.522C669.211 401.072 666.686 404.191 663.585 405.75C662.269 405.43 661.179 403.846 660.472 402.75C659.986 401.996 659.445 401.021 659.673 400.125C660.751 395.88 667.514 391.099 671.197 389.078C673.831 387.633 676.259 386.893 679.181 386.377Z"/>
	<path fill="#050507" transform="scale(0.5 0.5)" d="M642.058 426.563C642.921 425.229 643.634 423.877 645 422.998C647.344 422.956 648.726 423.453 650.419 425.119C651.771 426.45 652.695 427.733 653.37 429.5C653.213 430.904 652.349 430.987 652.05 432C651.965 432.286 653.321 435.605 653.54 436.224C654.466 438.839 654.716 441.166 654.374 443.932C654.287 445.162 654.041 446.36 653.148 447.292L652.35 447.893C650.605 446.015 648.924 444.284 647.73 441.984C646.304 439.891 645.406 437.467 644.838 435.009C644.572 433.855 644.296 432.884 643.821 431.8C642.628 430.482 642.465 428.301 642.058 426.563Z"/>
	<defs>
		<linearGradient id="gradient_0" gradientUnits="userSpaceOnUse" x1="653.28436" y1="437.05829" x2="644.66467" y2="437.94696">
			<stop offset="0" stop-color="#FFE4E3"/>
			<stop offset="1" stop-color="#F6FEFF"/>
		</linearGradient>
	</defs>
	<path fill="url(#gradient_0)" transform="scale(0.5 0.5)" d="M643.821 431.8C644.017 430.196 644.065 429.196 645.25 427.971C646.82 427.955 646.73 427.937 647.89 429C647.781 430.45 646.094 433.117 646.174 434.162C646.257 435.251 647.99 437.803 648.485 438.998C649.825 440.892 650.763 442.204 652.871 443.226L653.755 443.661L654.374 443.932C654.287 445.162 654.041 446.36 653.148 447.292L652.35 447.893C650.605 446.015 648.924 444.284 647.73 441.984C646.304 439.891 645.406 437.467 644.838 435.009C644.572 433.855 644.296 432.884 643.821 431.8Z"/>
	<path fill="#E5989B" transform="scale(0.5 0.5)" d="M917.699 795.936L917.763 795.288C918.207 792.56 920.186 789.945 921.598 787.618C926.961 778.784 932.868 770.096 941.667 764.3L942.358 763.851C952.808 756.973 964.418 754.242 976.573 752.408C983.759 751.324 990.94 750.556 998.208 751.262C1000.86 751.519 1002.24 751.431 1003.98 753.546L989.515 754.967C977.406 756.051 964.642 757.431 953.5 762.63C943.857 767.13 935.695 774.305 928.722 782.25L917.699 795.936Z"/>
	<path fill="#E3676A" transform="scale(0.5 0.5)" d="M674.021 381.247L675.964 380.234C683.667 384.369 691.395 386.799 699.57 389.778C706.917 392.457 714.073 395.279 721.604 397.46C737.349 402.019 753.398 404.349 769.78 404.609C749.989 414.015 724.633 403.448 705.469 396.65C701.633 395.29 685.838 390.436 683.856 387.756L683.937 386.761L679.181 386.377C680.122 386.018 680.559 385.862 681.112 385C680.446 384.447 680.694 384.556 680.033 384.29C677.91 383.434 676.008 382.373 674.021 381.247Z"/>
	<path fill="#FFFAE2" transform="scale(0.5 0.5)" d="M461.184 251.136C462.993 250.565 465.035 251.593 466.667 252.495C468.357 253.428 470.011 254.844 471.039 256.493C472.969 259.591 473.954 264.121 475.023 267.623L480.813 287.75L481.018 288.622C482.237 293.434 489.565 296.511 493.359 299.306C495.994 301.247 498.515 303.422 500.818 305.75C508.891 313.911 513.619 322.685 518.862 332.79C521.202 337.3 524.889 344.609 523.814 349.75L522.096 350.304C520.268 347.981 520.168 343.277 519.105 340.38C515.623 330.892 510.365 320.4 503.54 312.893C500.257 309.282 496.157 306.13 492.25 303.213L481.867 295.912C481.392 295.574 479.264 294.305 479.059 293.921C478.745 293.333 478.966 292.591 478.919 291.926C478.654 291.599 478.306 291.312 478 291.021L472.314 291.187L471.75 290.58C471.346 286.672 470.219 282.87 469.559 279C467.963 269.639 467.945 258.48 461.184 251.136Z"/>
	<path fill="#050507" transform="scale(0.5 0.5)" d="M675.471 416.611L674.332 416.148C673.751 414.492 674.486 412.61 675.234 411.095C676.751 408.025 679.315 405.667 682.606 404.65C689.053 402.658 699.556 404.578 706.082 406.172C704.115 408.956 701.483 412.004 700.095 415.088L704.133 417.94C703.022 419.737 702.015 421.488 700.5 422.983C699.876 422.44 700.136 422.734 699.701 422.12C698.965 425.71 696.064 428.982 693.309 431.285L692.38 431.439L690.952 432.419L690.521 432.721C689.379 433.508 688.315 433.937 687.012 434.395C686.371 434.621 686.625 434.484 686.145 434.839C685 433.871 682.661 431.845 681.976 430.498C681.554 429.669 681.646 428.107 681.593 427.149C681.45 424.563 681.461 421.679 680.517 419.25C678.973 417.61 677.601 417.233 675.471 416.611Z"/>
	<path fill="white" transform="scale(0.5 0.5)" d="M692.38 431.439C694.545 424.89 690.572 418.017 688.48 411.75L688.959 410.872C689.872 410.698 690.857 410.511 691.788 410.616C694.671 410.939 697.335 414.626 699.114 416.741L699.701 422.12C698.965 425.71 696.064 428.982 693.309 431.285L692.38 431.439Z"/>
	<path fill="#E5989B" transform="scale(0.5 0.5)" d="M621.01 319.364C625.626 318.258 630.615 316.487 635.343 316.146C641.011 319.758 645.018 324.254 649.566 329.151L668.407 350.999C679.216 364.312 688.994 377.065 705.348 383.857C711.517 387.569 719.718 389.319 726.572 391.407C727.485 391.685 728.337 391.954 729.279 392.115C730.399 392.307 730.243 392.425 730.933 393.25L729 393.311C723.208 392.81 717.156 390.853 711.692 388.947C693.631 382.647 673.655 372.251 660.25 358.484C652.836 350.869 647.713 342.015 641.284 333.701C638.947 330.679 637.32 329.434 633.481 328.998C621.422 327.629 617.18 334.706 608.659 341.016C607.91 341.571 607.964 341.654 606.998 341.5C606.829 338.628 613.336 333.693 615.365 331.372C616.514 330.059 617.229 328.51 617.867 326.901C618.79 324.573 620.216 322.229 620.898 319.845L621.01 319.364Z"/>
	<path fill="#FFB4A2" transform="scale(0.5 0.5)" d="M621.01 319.364L621.17 318.793C623.15 312.732 628.108 306.252 633.869 303.336C636.301 304.477 638.952 305.684 641.141 307.255C652.033 315.069 658.783 329.182 667.48 339.25L684.196 357.091C688.71 361.734 693.226 366.586 698.365 370.548C702.421 373.676 706.768 376.029 711.053 378.772L711.097 379.454L711.525 379.626C714.759 380.949 718.023 382.683 721 384.5L724.812 386.453C725.619 386.887 726.188 386.941 727 387.25L728.5 388L729.75 388.5L734.805 390.695C735.427 390.978 735.865 391.068 736.5 391.25C738.284 391.761 743.209 392.948 744.25 394.245L745.375 394.125C744.621 394.577 744.01 394.609 743.125 394.375L742.25 394C740.267 393.486 738.223 393.179 736.25 392.5L735 392.25L734.398 392.117C733.542 391.946 733.884 392.02 732.914 391.945C731.564 391.841 732.661 391.985 731.25 391.5C730.221 391.146 728.943 390.93 727.875 390.625C726.917 390.351 726.231 390.377 725.25 390L724.5 389.75L724 389.377L723.367 389.4C722.172 389.398 723.027 389.43 721.75 389C720.159 388.464 718.468 388.205 716.875 387.625C715.15 386.997 713.245 386.22 711.5 385.75C710.409 385.456 709.5 385.005 708.5 384.5L707.688 384.101C707.273 383.894 706.936 383.536 706.5 383.377L705.618 383.247L705.348 383.857C688.994 377.065 679.216 364.312 668.407 350.999L649.566 329.151C645.018 324.254 641.011 319.758 635.343 316.146C630.615 316.487 625.626 318.258 621.01 319.364Z"/>
	<path fill="#E5989B" transform="scale(0.5 0.5)" d="M440.598 856.369C443.773 854.707 446.74 852.519 450 851.062C455.099 848.783 462.8 848.852 468.325 849.468L464.078 855.87C465.472 857.174 466.688 858.94 468.75 858.824C470.998 858.697 473.298 857.344 475.246 856.327C481.409 853.111 486.288 848.278 492.318 845.007C493.296 844.476 495.389 843.217 496.515 843.179C498.488 843.115 501.675 844.502 503.765 844.843C506.946 845.362 510.284 845.405 513.501 845.606C509.23 848.166 504.659 850.092 500.468 852.75C495.444 855.937 490.824 859.788 485.75 862.861C484.64 863.534 483.897 864.208 482.573 863.962L480.727 863.616C479.159 863.313 478.529 863.322 477 863.909L473.781 864.934C469.354 865.427 464.725 865.131 460.38 865.787C448.949 867.511 440.525 876.72 430.908 882.228C429.323 882.608 427.846 883.162 426.324 883.741L419.44 886.559L414.916 884.102C414.318 882.863 414.657 882.772 415.055 881.518C423.071 875.494 430.143 866.027 436.509 858.288C437.986 857.762 439.244 857.158 440.598 856.369Z"/>
	<path fill="white" transform="scale(0.5 0.5)" d="M473.781 864.934C476.585 864.848 479.406 864.593 482.096 865.521C487.302 867.317 500.243 863.711 503.756 867.75L503.99 869.47L523.796 869.839L547.651 868.975C548.501 868.975 551.045 868.71 551.75 869.018C552.251 869.236 552.644 869.647 553.091 869.961C554.091 871.951 554.679 873.561 555.065 875.745L555.235 876.648L555.332 877.208L555.053 878.01L547.77 878.09L552.75 878.544L552.889 879.25C544.29 881.431 534.646 881.048 525.817 881.204L486.25 881.612L445.401 882.054C440.621 882.067 435.656 882.43 430.908 882.228C440.525 876.72 448.949 867.511 460.38 865.787C464.725 865.131 469.354 865.427 473.781 864.934Z"/>
	<path fill="#FFCDB2" transform="scale(0.5 0.5)" d="M495.077 878.538L489.543 878.615L489.041 871.034L495 869.646L495.544 869.981C497.012 870.661 500.558 870.092 501.429 870.859L495.077 878.538Z"/>
	<path fill="#E5989B" transform="scale(0.5 0.5)" d="M503.99 869.47L523.796 869.839L547.651 868.975C548.501 868.975 551.045 868.71 551.75 869.018C552.251 869.236 552.644 869.647 553.091 869.961C554.091 871.951 554.679 873.561 555.065 875.745L555.235 876.648L555.332 877.208L555.053 878.01L547.77 878.09L495.077 878.538L501.429 870.859C500.558 870.092 497.012 870.661 495.544 869.981L495 869.646L503.99 869.47Z"/>
	<path fill="#6D6875" transform="scale(0.5 0.5)" d="M142.697 850.073C146.745 851.773 150.351 854.972 153.787 857.663L168.868 869.007C170.085 869.856 172.234 871.764 173.566 872.111C174.361 872.978 175.623 874.14 175.929 875.298C176.427 877.178 176.075 880.062 176.079 882.024L175.973 899.379C175.904 901.065 175.607 902.574 175.183 904.202L174.69 906.042C170.267 904.69 163.832 905.478 159.168 905.474L129.224 905.445L0 905.501L-0 871.12L0 866.866L0 852.109L70.9432 852.017L93.0065 852.014C98.2144 852.006 103.349 852.203 108.5 851.337C113.472 850.501 119.434 850.263 124.46 850.646C124.817 851.387 125.076 852.067 125.29 852.862C125.501 851.74 125.488 851.769 126.382 851.056C128.608 849.316 139.486 850.113 142.697 850.073Z"/>
	<path fill="#FFB4A2" transform="scale(0.5 0.5)" d="M125.29 852.862C125.501 851.74 125.488 851.769 126.382 851.056C127.829 854.357 134.054 866.11 132.43 869C132.232 869.353 131.768 869.744 131.467 870.022L123.577 869.809C122.291 868.658 121.506 867.666 120.643 866.176L125.371 862.449C125.613 859.206 125.512 856.104 125.29 852.862Z"/>
	<path fill="#E5989B" transform="scale(0.5 0.5)" d="M-0 866.866L84.0297 866.645L104.828 866.672C110.067 866.72 115.465 867.083 120.643 866.176C121.506 867.666 122.291 868.658 123.577 869.809L131.467 870.022C128.852 870.984 125.17 870.547 122.377 870.562L103.115 870.679L53.0342 871.76L-0 871.12L0 866.866Z"/>
	<path fill="#6D6875" transform="scale(0.5 0.5)" d="M0 852.109L70.9432 852.017L93.0065 852.014C98.2144 852.006 103.349 852.203 108.5 851.337C113.472 850.501 119.434 850.263 124.46 850.646C124.817 851.387 125.076 852.067 125.29 852.862C125.512 856.104 125.613 859.206 125.371 862.449L120.643 866.176C115.465 867.083 110.067 866.72 104.828 866.672L84.0297 866.645L-0 866.866L0 852.109Z"/>
	<path fill="#FFFAE2" transform="scale(0.5 0.5)" d="M215.048 843.362L243.73 873.173L256.99 887.069C259.616 889.79 262.352 893.01 265.57 895.035L399.474 895.982C400.513 895.261 401.648 894.192 402.516 893.25C404.589 891.001 405.504 888.577 405.417 885.536L405.31 884.101C404.396 882.697 403.226 881.764 401.951 880.694C402.818 880.226 403.702 879.877 404.624 879.53L405.381 879.25C407.965 878.281 410.665 878.489 413.382 878.524L414.946 880.086L415.055 881.518C414.657 882.772 414.318 882.863 414.916 884.102L419.44 886.559L426.324 883.741C427.846 883.162 429.323 882.608 430.908 882.228C435.656 882.43 440.621 882.067 445.401 882.054L486.25 881.612L525.817 881.204C534.646 881.048 544.29 881.431 552.889 879.25L552.75 878.544L547.77 878.09L555.053 878.01L555.332 877.208C556.157 876.508 556.346 875.956 557.474 876.052C562.049 876.438 567.519 879.401 572.061 880.749L601.631 888.849C606.106 890.283 610.161 892.498 614.521 894.165L630.363 899.674L646.81 906.501C630.413 907.454 613.8 906.903 597.373 906.845L517.551 906.572L283.05 906.514C271.885 906.514 177.858 907.613 174.69 906.042L175.183 904.202C175.607 902.574 175.904 901.065 175.973 899.379L176.079 882.024C176.075 880.062 176.427 877.178 175.929 875.298C175.623 874.14 174.361 872.978 173.566 872.111C172.234 871.764 170.085 869.856 168.868 869.007L153.787 857.663C150.351 854.972 146.745 851.773 142.697 850.073L141.961 848.755L156.617 846.953C158.477 847.368 160.749 847.051 162.65 846.97L175.162 846.192L199.561 845.129C204.356 844.906 210.575 844.998 215.048 843.362Z"/>
	<path fill="#FFB4A2" transform="scale(0.5 0.5)" d="M547.77 878.09L555.053 878.01L555.194 880.309C557.239 881.137 559.503 881.81 561.43 882.87C565.626 885.18 569.075 889.136 572.053 892.832C565.69 894.692 559.431 895.563 552.811 895.831C541.061 896.306 529.464 895.423 517.75 894.879L494.583 894.239L460 891.022C452.908 890.379 445.986 889.913 438.933 888.801C435.97 888.335 432.215 887.851 429.581 886.377C428.366 885.697 427.302 884.717 426.324 883.741C427.846 883.162 429.323 882.608 430.908 882.228C435.656 882.43 440.621 882.067 445.401 882.054L486.25 881.612L525.817 881.204C534.646 881.048 544.29 881.431 552.889 879.25L552.75 878.544L547.77 878.09Z"/>
	<path fill="#FFB4A2" transform="scale(0.5 0.5)" d="M215.048 843.362L243.73 873.173L256.99 887.069C259.616 889.79 262.352 893.01 265.57 895.035L399.474 895.982L398.869 897.238L398.42 899C397.981 899.944 397.568 900.355 396.602 900.605C392.728 901.61 386.968 900.93 382.922 900.956L351.802 901.216L294.968 901.517C285.956 901.525 276.485 902.101 267.514 901.34C260.793 900.77 254.117 899.29 247.5 898.036C230.665 894.846 213.392 891.218 197.659 884.22C193.821 882.513 189.791 880.739 186.246 878.48C183.318 876.614 180.53 874.246 177.481 872.617C175.83 871.735 175.374 871.604 173.566 872.111C172.234 871.764 170.085 869.856 168.868 869.007L153.787 857.663C150.351 854.972 146.745 851.773 142.697 850.073L141.961 848.755L156.617 846.953C158.477 847.368 160.749 847.051 162.65 846.97L175.162 846.192L199.561 845.129C204.356 844.906 210.575 844.998 215.048 843.362Z"/>
	<path fill="white" transform="scale(0.5 0.5)" d="M207.954 805.908C206.22 803.799 205.405 800.832 204.651 798.25C205.05 796.951 205.172 796.892 206.25 796.044C208.329 796.032 209.631 796.154 211.459 797.183C212.608 797.299 213.492 797.323 214.517 797.902L214.774 796.615C218.599 795.389 223.305 795.968 226.815 797.849C230.348 799.742 233.349 802.022 237.204 803.339C235.663 801.027 233.993 799.055 232.12 797.015C233.918 796.473 237.23 797.794 239.268 797.885C244.081 799.344 248.627 799.777 253.626 800.263C255.249 799.809 256.243 798.774 257.518 797.713C258.324 797.998 260.871 799.16 261.591 799.057C264.829 797.753 269.944 798.325 273.25 799.305C287.731 803.595 298.815 815.227 312.596 821.231C314.278 822.475 315.829 823.628 317.779 824.442L336.346 838.994C331.432 838.588 325.924 838.171 321.087 839.25C324.93 841.463 331.016 838.513 335.5 840.995C336.586 840.607 336.361 840.504 337.565 840.92L340.292 845.046L341.172 845.03C346.174 844.96 348.919 846.958 353.199 849.184C356.389 850.842 359.46 852.41 362.263 854.689C364.894 856.828 367.044 859.506 369.844 861.445C373.301 863.839 377.272 865.272 380.675 867.735L366.982 869.503C365.757 869.745 364.796 870.552 363.815 871.277L363.996 872.202L365.182 871.655C366.892 873.251 369.85 876.44 372.093 877.094C373.571 877.524 376.616 877.053 378.266 877.043C383.521 877.009 388.69 876.887 393.904 877.703C395.274 878.415 400.616 881.014 401.951 880.694C403.226 881.764 404.396 882.697 405.31 884.101L405.417 885.536C405.504 888.577 404.589 891.001 402.516 893.25C401.648 894.192 400.513 895.261 399.474 895.982L265.57 895.035C262.352 893.01 259.616 889.79 256.99 887.069L243.73 873.173L215.048 843.362L198.126 817.465C197.996 815.549 198.546 815.323 199.683 813.841L200.365 813.436C200.777 811.282 199.671 809.528 199.125 807.5C198.712 805.963 198.251 804.953 199 803.542C201.295 803.028 204.981 805.521 207.538 805.862L207.954 805.908Z"/>
	<path fill="#FFCDB2" transform="scale(0.5 0.5)" d="M349.856 852.706L352.335 852.527C354.951 852.421 357.076 852.992 359.031 854.75L358.75 855.699L353.885 855.295L342 854.077C344.616 853.214 347.136 852.963 349.856 852.706Z"/>
	<path fill="#E5989B" transform="scale(0.5 0.5)" d="M257.518 797.713C258.324 797.998 260.871 799.16 261.591 799.057C265.555 802.529 269.498 805.7 273.902 808.611L290.447 819.607C293.482 821.711 297.014 823.959 299.404 826.814L286.309 819.204L269.724 808.198C264.662 804.858 259.632 801.522 253.626 800.263C255.249 799.809 256.243 798.774 257.518 797.713Z"/>
	<path fill="#E5989B" transform="scale(0.5 0.5)" d="M304.064 870.562C305.179 871.533 308.588 875.156 309.779 875.543C310.726 875.851 313.735 875.326 314.838 875.266L331.648 874.459L306.619 853.75L307.25 853.077C310.459 855.008 313.196 857.771 316.122 860.105L333.498 873.966C335.754 875.824 361.211 875.276 365.429 874.86C365.206 873.577 364.819 873.236 363.996 872.202L365.182 871.655C366.892 873.251 369.85 876.44 372.093 877.094C373.571 877.524 376.616 877.053 378.266 877.043C383.521 877.009 388.69 876.887 393.904 877.703C395.274 878.415 400.616 881.014 401.951 880.694C403.226 881.764 404.396 882.697 405.31 884.101L405.417 885.536L271.452 884.922L272.888 882.5C274.328 880.017 276.081 877.446 278.779 876.22L280.719 875.192C288.987 874.089 297.714 876.378 305.925 875.376L301.587 871.772C300.66 871.625 299.122 870.524 298.264 870.039C292.69 866.887 288.002 862.965 283.214 858.759L286.401 856.458L300.54 867.341C301.512 868.155 303.608 869.458 304.064 870.562Z"/>
	<path fill="white" transform="scale(0.5 0.5)" d="M207.954 805.908C206.22 803.799 205.405 800.832 204.651 798.25C205.05 796.951 205.172 796.892 206.25 796.044C208.329 796.032 209.631 796.154 211.459 797.183C212.608 797.299 213.492 797.323 214.517 797.902L251.575 828.282L286.401 856.458L283.214 858.759C288.002 862.965 292.69 866.887 298.264 870.039C299.122 870.524 300.66 871.625 301.587 871.772L305.925 875.376C297.714 876.378 288.987 874.089 280.719 875.192C280.091 874.103 279.456 872.946 278.628 871.995C274.736 867.525 269.407 863.625 265.108 859.42L230.032 825.36C223.13 818.761 216.257 810.718 207.954 805.908Z"/>
	<path fill="#6D6875" transform="scale(0.5 0.5)" d="M211.459 797.183C212.608 797.299 213.492 797.323 214.517 797.902L251.575 828.282L286.401 856.458L283.214 858.759L247.283 827.828C242.453 824.65 238.062 820.182 233.641 816.432C226.187 810.112 218.212 804.258 211.459 797.183Z"/>
	<path fill="#6D6875" transform="scale(0.5 0.5)" d="M199.683 813.841L200.365 813.436C200.777 811.282 199.671 809.528 199.125 807.5C198.712 805.963 198.251 804.953 199 803.542C201.295 803.028 204.981 805.521 207.538 805.862L207.954 805.908C216.257 810.718 223.13 818.761 230.032 825.36L265.108 859.42C269.407 863.625 274.736 867.525 278.628 871.995C279.456 872.946 280.091 874.103 280.719 875.192L278.779 876.22C276.081 877.446 274.328 880.017 272.888 882.5L271.452 884.922L405.417 885.536C405.504 888.577 404.589 891.001 402.516 893.25C401.648 894.192 400.513 895.261 399.474 895.982L265.57 895.035C262.352 893.01 259.616 889.79 256.99 887.069L243.73 873.173L215.048 843.362L198.126 817.465C197.996 815.549 198.546 815.323 199.683 813.841Z"/>
	<path fill="#FFB4A2" transform="scale(0.5 0.5)" d="M199.683 813.841L200.365 813.436C200.777 811.282 199.671 809.528 199.125 807.5C198.712 805.963 198.251 804.953 199 803.542C201.295 803.028 204.981 805.521 207.538 805.862L207.954 805.908C216.257 810.718 223.13 818.761 230.032 825.36L265.108 859.42C269.407 863.625 274.736 867.525 278.628 871.995C279.456 872.946 280.091 874.103 280.719 875.192L278.779 876.22C276.081 877.446 274.328 880.017 272.888 882.5L271.452 884.922C270.7 884.817 270.153 884.656 269.543 884.183C263.752 879.7 258.77 873.523 253.58 868.308L214.018 828.166C209.275 823.442 204.723 818.222 199.683 813.841Z"/>
	<path fill="#FFCDB2" transform="scale(0.5 0.5)" d="M73.3488 772.465L73.4449 776C75.6615 777.282 109.865 776.52 115.436 776.527L251.831 776.538L295.968 776.509L326.671 776.901C325.532 776.966 322.101 776.769 321.25 777.211C320.139 777.79 318.369 779.803 317.509 780.763L316.075 782.5L315.661 783.005C309.273 790.898 308.487 802.78 309.644 812.5C310.013 815.602 310.927 818.57 312.596 821.231C298.815 815.227 287.731 803.595 273.25 799.305C269.944 798.325 264.829 797.753 261.591 799.057C260.871 799.16 258.324 797.998 257.518 797.713C256.243 798.774 255.249 799.809 253.626 800.263C248.627 799.777 244.081 799.344 239.268 797.885C237.23 797.794 233.918 796.473 232.12 797.015C233.993 799.055 235.663 801.027 237.204 803.339C233.349 802.022 230.348 799.742 226.815 797.849C223.305 795.968 218.599 795.389 214.774 796.615L214.517 797.902C213.492 797.323 212.608 797.299 211.459 797.183C209.631 796.154 208.329 796.032 206.25 796.044C205.172 796.892 205.05 796.951 204.651 798.25C205.405 800.832 206.22 803.799 207.954 805.908L207.538 805.862C204.981 805.521 201.295 803.028 199 803.542C198.251 804.953 198.712 805.963 199.125 807.5C199.671 809.528 200.777 811.282 200.365 813.436L199.683 813.841C198.546 815.323 197.996 815.549 198.126 817.465L215.048 843.362C210.575 844.998 204.356 844.906 199.561 845.129L175.162 846.192L162.65 846.97C160.749 847.051 158.477 847.368 156.617 846.953L141.961 848.755L142.697 850.073C139.486 850.113 128.608 849.316 126.382 851.056C125.488 851.769 125.501 851.74 125.29 852.862C125.076 852.067 124.817 851.387 124.46 850.646C119.434 850.263 113.472 850.501 108.5 851.337C103.349 852.203 98.2144 852.006 93.0065 852.014L70.9432 852.017L0 852.109L-0 839.827C2.62757 839.877 9.56118 840.769 11.5818 839.407C13.5182 835.771 15.5191 832.14 18.3674 829.128C17.5068 832.847 16.3318 835.962 14.6353 839.398C17.1626 840.468 20.281 840.708 22.9835 841.38C25.5821 832.588 29.9902 824.458 33.4232 815.966C34.5852 813.092 35.0913 809.759 36.5437 807.054L37.3564 807.121C37.494 808.178 37.5221 808.793 38.25 809.605C41.324 807.705 41.6331 802.839 42.6854 799.665C43.7421 796.478 45.1061 793.195 46.9215 790.374L47.2473 789.878L53.6475 775.895L66.5 776.014C68.6346 776.108 70.6011 776.58 72.75 776.309L73.3488 772.465Z"/>
	<path fill="#E3676A" transform="scale(0.5 0.5)" d="M239.268 797.885C244.121 796.265 252.352 797.397 257.518 797.713C256.243 798.774 255.249 799.809 253.626 800.263C248.627 799.777 244.081 799.344 239.268 797.885Z"/>
	<defs>
		<linearGradient id="gradient_1" gradientUnits="userSpaceOnUse" x1="96.327164" y1="846.17798" x2="97.466995" y2="805.93689">
			<stop offset="0" stop-color="#FFF9DF"/>
			<stop offset="1" stop-color="#FFE4E1"/>
		</linearGradient>
	</defs>
	<path fill="url(#gradient_1)" transform="scale(0.5 0.5)" d="M42.5084 806.122L94.3465 806.335L120.789 806.088C125.567 806.035 131.522 805.409 136.148 806.563C136.995 808.223 137.821 810.174 138.968 811.643C141.35 814.695 144.049 816.432 145.962 820C150.536 828.531 153.723 837.742 156.617 846.953L141.961 848.755C141.285 846.978 141.447 844.732 141.372 842.828L140.902 830.312L116.197 831.492C115.757 829.062 113.969 826.629 112.39 824.783C110.985 823.14 109.766 822.74 107.658 822.573C101.507 822.088 95.4307 820.49 89.3492 820.196L73.5 820.072L50.3576 818.77C46.0913 818.546 41.588 818.939 37.4443 817.822L42.5084 806.122Z"/>
	<path fill="#B5838D" transform="scale(0.5 0.5)" d="M14.6353 839.398C17.1626 840.468 20.281 840.708 22.9835 841.38C25.5821 832.588 29.9902 824.458 33.4232 815.966C34.5852 813.092 35.0913 809.759 36.5437 807.054L37.3564 807.121C37.494 808.178 37.5221 808.793 38.25 809.605C41.324 807.705 41.6331 802.839 42.6854 799.665C43.7421 796.478 45.1061 793.195 46.9215 790.374L47.2473 789.878C47.6082 795.558 44.3598 800.86 42.5084 806.122L37.4443 817.822C41.588 818.939 46.0913 818.546 50.3576 818.77L73.5 820.072L89.3492 820.196C95.4307 820.49 101.507 822.088 107.658 822.573C109.766 822.74 110.985 823.14 112.39 824.783C113.969 826.629 115.757 829.062 116.197 831.492L140.902 830.312L141.372 842.828C141.447 844.732 141.285 846.978 141.961 848.755L142.697 850.073C139.486 850.113 128.608 849.316 126.382 851.056C125.488 851.769 125.501 851.74 125.29 852.862C125.076 852.067 124.817 851.387 124.46 850.646C119.434 850.263 113.472 850.501 108.5 851.337C103.349 852.203 98.2144 852.006 93.0065 852.014L70.9432 852.017L0 852.109L-0 839.827C2.62757 839.877 9.56118 840.769 11.5818 839.407C13.5182 835.771 15.5191 832.14 18.3674 829.128C17.5068 832.847 16.3318 835.962 14.6353 839.398Z"/>
	<path fill="white" transform="scale(0.5 0.5)" d="M37.4443 817.822C41.588 818.939 46.0913 818.546 50.3576 818.77L73.5 820.072L89.3492 820.196C95.4307 820.49 101.507 822.088 107.658 822.573C109.766 822.74 110.985 823.14 112.39 824.783C113.969 826.629 115.757 829.062 116.197 831.492L32.3816 834.426L37.4443 817.822Z"/>
	<defs>
		<linearGradient id="gradient_2" gradientUnits="userSpaceOnUse" x1="709.47614" y1="461.92242" x2="582.60321" y2="532.97296">
			<stop offset="0" stop-color="#C66068"/>
			<stop offset="1" stop-color="#B3858C"/>
		</linearGradient>
	</defs>
	<path fill="url(#gradient_2)" transform="scale(0.5 0.5)" d="M591.967 458.917C591.249 459.845 591.689 459.58 590.75 459.858C589.474 457.31 589.566 454.298 589.533 451.521C589.472 446.479 589.813 441.291 589.362 436.275C588.828 430.334 587.368 424.378 586.329 418.5C583.714 403.69 581.482 387.551 585.078 372.721C586.933 365.073 592.482 353.968 599.422 349.813C607.111 345.209 612.952 339.434 622.118 337.477C624.092 337.055 630.114 336.253 631.62 337.25C631.281 338.096 630.82 339.092 630.721 340C630.485 342.174 631.931 343.101 633.299 344.464L636.219 346.987L635.989 350.012C631.44 354.47 631.411 360.123 631.337 366.075L634.67 405.949L636.022 406.924L634.798 407.75C634.663 411.289 634.971 412.792 636.623 415.893C637.211 416.308 637.771 416.77 638.429 417.064L637.391 418C638.216 420.844 639.894 423.547 641.25 426.176C641.513 426.318 641.76 426.541 642.058 426.563C642.465 428.301 642.628 430.482 643.821 431.8C644.296 432.884 644.572 433.855 644.838 435.009C645.406 437.467 646.304 439.891 647.73 441.984C648.924 444.284 650.605 446.015 652.35 447.893C653.216 448.812 653.434 448.81 653.423 450.066C653.379 455.056 649.138 459.54 646.357 463.386C646.25 463.535 645.7 464.294 645.7 464.295C646.2 466.136 649.659 469.503 650.75 471.322C653.616 476.101 654.86 480.644 658.8 484.896C660.719 486.968 663.413 489.36 666 490.523C667.897 491.376 670.191 491.76 671.785 493.158C677.099 497.819 680.483 509.471 688.965 509.877C695.273 510.18 704.746 503.09 710.056 499.894L725.406 490.569C728.395 492.402 728.844 495.067 730.655 497.849C729.372 500.173 728.845 502.752 728.373 505.343L729.18 515.614C729.649 519.715 728.956 523.98 728.133 528L727.974 528.802C726.437 536.227 722.132 543.871 718.557 550.51C714.606 557.848 710.809 565.291 705.142 571.477C700.552 576.487 694.41 580.972 688.706 584.683L681.961 588.31C681.298 589.116 679.954 590.384 679.519 591.281C679.37 591.587 679.455 593.084 679.451 593.421C679.412 596.662 679.726 599.996 680.037 603.223C680.571 608.766 682.699 615.627 680.884 620.991C676.96 625.571 673.758 630.724 669.96 635.381C663.631 643.141 656.549 649.945 651.358 658.576L650.501 654.591C647.983 650.631 647.962 648.042 648.221 643.488C648.05 640.98 646.404 638.967 645.416 636.704L630.16 604.107L615.475 572.077C608.622 557.641 601.192 543.77 596.568 528.381C592.017 513.229 589.507 498.537 589.595 482.692C589.634 475.621 590.653 469.855 592.66 463.133C593.118 461.597 593.641 460.538 593.061 458.939L591.967 458.917Z"/>
	<path fill="#E5989B" transform="scale(0.5 0.5)" d="M729.18 515.614C727.56 515.499 726.573 514.853 725.193 514.024L724.623 513.676C722.341 514.521 719.826 515.287 717.693 516.452C715.023 517.91 712.642 520.288 710.025 521.964L711.5 519.693C714.613 515.272 719.309 512.174 723.468 508.829C724.949 507.639 726.483 505.679 728.373 505.343L729.18 515.614Z"/>
	<path fill="#E5989B" transform="scale(0.5 0.5)" d="M664.135 567.273L641.015 528.869C644.115 530.578 646.586 535.701 648.75 538.571L672.991 572.419C676.121 577.263 680.014 582.893 681.961 588.31C681.298 589.116 679.954 590.384 679.519 591.281C679.37 591.587 679.455 593.084 679.451 593.421C679.412 596.662 679.726 599.996 680.037 603.223C680.571 608.766 682.699 615.627 680.884 620.991C673.472 608.107 672.249 591.638 667.266 577.726L666.747 577.231C664.583 574.593 664.09 570.534 664.135 567.273Z"/>
	<path fill="#B5838D" transform="scale(0.5 0.5)" d="M664.135 567.273L667.634 572.078C671.259 576.532 674.477 583.006 676.02 588.5C677.025 592.078 677.417 595.787 678.417 599.341C678.788 600.657 678.768 602.041 678.819 603.4C674.165 595.193 671.944 585.864 668.386 577.177L667.266 577.726L666.747 577.231C664.583 574.593 664.09 570.534 664.135 567.273Z"/>
	<path fill="#E5989B" transform="scale(0.5 0.5)" d="M591.967 458.917C591.249 459.845 591.689 459.58 590.75 459.858C589.474 457.31 589.566 454.298 589.533 451.521C589.472 446.479 589.813 441.291 589.362 436.275C588.828 430.334 587.368 424.378 586.329 418.5C583.714 403.69 581.482 387.551 585.078 372.721C586.933 365.073 592.482 353.968 599.422 349.813C607.111 345.209 612.952 339.434 622.118 337.477C624.092 337.055 630.114 336.253 631.62 337.25C631.281 338.096 630.82 339.092 630.721 340C630.485 342.174 631.931 343.101 633.299 344.464C628.957 344.685 626.28 345.819 623.26 349.094C622.285 350.152 620.795 351.893 620.663 353.354C620.062 357.245 619.21 359.824 616.75 363.001C610.436 375.164 608.536 390.976 606.834 404.442C604.924 419.564 606.836 435.634 607.389 450.847L607.81 464.038C607.907 466.74 607.725 469.586 608.865 472.084L610 473.006L610.532 472.5C610.495 467.573 610.203 462.579 611.305 457.75L611.501 456.861C613.17 449.529 615.449 442.258 617.652 435.071C619.648 428.559 621.391 421.79 624.859 415.869C623.974 423.228 622.196 430.514 621.559 437.884C620.192 453.679 621.045 469.03 621.454 484.807C621.838 499.589 621.148 515.466 624.836 529.846C628.325 543.448 635.454 555.07 641.588 567.529C646.324 577.147 650.257 587.423 652.751 597.859C653.478 600.901 654.616 604.567 654.42 607.696C655.286 616.168 654.837 624.964 653.293 633.322L653.171 633.404L650.501 654.591C647.983 650.631 647.962 648.042 648.221 643.488C648.05 640.98 646.404 638.967 645.416 636.704L630.16 604.107L615.475 572.077C608.622 557.641 601.192 543.77 596.568 528.381C592.017 513.229 589.507 498.537 589.595 482.692C589.634 475.621 590.653 469.855 592.66 463.133C593.118 461.597 593.641 460.538 593.061 458.939L591.967 458.917Z"/>
	<path fill="#B5838D" transform="scale(0.5 0.5)" d="M630.85 582.851L621.106 549.224C632.866 554.964 639.006 568.666 643.703 580.256L650.009 596.718L652.45 606.328C653.378 614.618 653.799 623.829 651.75 631.977C650.883 632.158 651.297 632.169 650.508 631.992C650.958 613.015 638.32 599.965 631.189 583.647L630.85 582.851Z"/>
	<path fill="#B5838D" transform="scale(0.5 0.5)" d="M591.967 458.917C591.249 459.845 591.689 459.58 590.75 459.858C589.474 457.31 589.566 454.298 589.533 451.521C589.472 446.479 589.813 441.291 589.362 436.275C588.828 430.334 587.368 424.378 586.329 418.5C583.714 403.69 581.482 387.551 585.078 372.721C586.933 365.073 592.482 353.968 599.422 349.813C607.111 345.209 612.952 339.434 622.118 337.477C624.092 337.055 630.114 336.253 631.62 337.25C631.281 338.096 630.82 339.092 630.721 340C630.485 342.174 631.931 343.101 633.299 344.464C628.957 344.685 626.28 345.819 623.26 349.094C622.285 350.152 620.795 351.893 620.663 353.354C619.85 353.837 618.933 354.259 618.292 354.958C615.462 357.096 612.446 359.171 609.914 361.657C605.898 365.1 599.954 368.458 597 372.818C595.692 374.748 595.149 378.071 594.528 380.337C592.189 388.878 590.123 397.109 589.533 406C589.227 410.603 588.571 415.962 588.94 420.517L589.541 420.625L590.533 419.75C590.741 414.203 590.775 408.527 591.721 403.049C593.583 392.263 598.585 380.715 604.608 371.581C606.675 368.447 609.225 365.668 611.32 362.571L612.5 361.535L613.957 362.046C611.014 366.119 609.409 371.259 607.679 375.954C605.423 382.075 602.92 388.08 601.186 394.387C599.124 401.889 597.996 410.183 597.536 417.946C597.058 426.023 598.045 435.085 596.287 442.966L596.168 443.517L591.967 458.917Z"/>
	<path fill="#FFB4A2" transform="scale(0.5 0.5)" d="M596.168 443.517L596.879 443.774C598.139 448.227 600.892 453.639 601.277 458.153C601.559 461.455 599.934 465.476 599.581 468.859C598.855 475.799 598.737 482.902 599.045 489.873C599.577 501.914 603.639 513.773 607.003 525.25C608.647 530.859 609.245 536.712 610.784 542.337C614.09 554.415 620.039 566.49 626.253 577.347C627.494 579.516 628.936 581.249 630.85 582.851L631.189 583.647C638.32 599.965 650.958 613.015 650.508 631.992L649.698 636.609C649.437 637.689 648.774 642.781 648.221 643.488C648.05 640.98 646.404 638.967 645.416 636.704L630.16 604.107L615.475 572.077C608.622 557.641 601.192 543.77 596.568 528.381C592.017 513.229 589.507 498.537 589.595 482.692C589.634 475.621 590.653 469.855 592.66 463.133C593.118 461.597 593.641 460.538 593.061 458.939L591.967 458.917L596.168 443.517Z"/>
	<defs>
		<linearGradient id="gradient_3" gradientUnits="userSpaceOnUse" x1="788.0528" y1="690.13751" x2="668.71057" y2="1084.9886">
			<stop offset="0" stop-color="#090A11"/>
			<stop offset="1" stop-color="#15162D"/>
		</linearGradient>
	</defs>
	<path fill="url(#gradient_3)" transform="scale(0.5 0.5)" d="M917.699 795.936L928.722 782.25C935.695 774.305 943.857 767.13 953.5 762.63C964.642 757.431 977.406 756.051 989.515 754.967L1003.98 753.546C1003.25 754.931 1002.23 756.109 1001.55 757.5C999.872 760.973 999.054 765.532 997.974 769.25L989.431 800.624L971.503 867.25L960.6 907.504C949.218 949.582 933.273 1004.75 886.5 1019.53L881.899 1020.88L875.371 1022.28L867.433 1022.92L481.24 1022.42L456.418 1022.57L455.75 1021.82C455 1010.55 454.692 996.856 461.683 987.292C465.936 981.473 471.739 977.917 478.445 975.459C493.998 969.756 510.189 969.206 526.5 967.817L576.092 963.502C585.733 962.658 595.545 962.183 605.105 960.696C605.946 960.007 619.83 959.148 622.383 958.914L667.734 954.25L690.957 951.905C694.647 951.464 698.467 951.395 702.045 950.372C706.195 938.97 712.527 927.778 717.68 916.741C718.341 915.325 720.713 911.628 720.788 910.255C720.815 909.765 720.12 908.389 719.939 907.855C719.053 905.247 718.165 902.623 717.488 899.951C715.767 893.152 715.109 886.145 714.276 879.195L713.915 877.198L714.329 870.343C714.442 869.563 714.585 869.129 714.888 868.419L715.445 864.5C716.723 856.694 714.955 849.328 714.964 841.538C717.204 841.356 721.96 840.472 723.848 841.616L736.762 838.435L738.182 842.518C748.175 843.116 758.479 842.48 768.46 841.941C785.605 841.016 803.012 839.655 819.828 836.044L851.082 827.683C854.32 826.846 857.624 826.363 860.922 825.838C862.519 825.584 864.586 825.405 866 824.575C867.562 823.659 867.388 822.959 867.729 821.327C868.141 822.901 869.054 826.3 868.296 827.764C866.5 831.236 858.501 831.065 858.039 834C857.937 834.647 858.554 836.353 858.702 837.074C859.322 840.098 860.005 843.297 860.156 846.372C861.085 848.406 861.767 852.814 861.03 854.978C864.825 857.29 888.095 851.173 892.584 850.142C900.638 831.736 907.45 813.342 917.699 795.936Z"/>
	<path fill="white" transform="scale(0.5 0.5)" d="M865.424 894.75L867.515 894.75C864.157 897.017 859.898 898.278 856.115 899.665C834.731 907.51 812.166 911.884 789.75 915.677L788.728 915.273C787.779 914.079 787.703 913.765 787.448 912.25C787.715 911.949 787.893 911.532 788.25 911.346C790.082 910.388 794.395 910.295 796.5 910.019L815.406 907.268C825.631 905.531 835.671 903.694 845.695 900.966L865.424 894.75Z"/>
	<path fill="#303349" transform="scale(0.5 0.5)" d="M728.395 947.726C734.935 938.307 740.576 925.448 742.886 914.236C743.878 909.42 744.106 904.586 744.506 899.699C744.715 897.151 744.645 893.73 746.017 891.53C747.274 891.271 747.065 891.36 748.115 891.878C748.793 892.867 749.276 893.643 749.558 894.835L749.694 895.438L750.076 897.074C750.989 901.69 750.481 906.605 750.051 911.25L747.915 928.789C747.078 933.98 746.431 940.372 743.368 944.742L742.985 945.271C737.967 945.39 733.363 947.596 728.395 947.726Z"/>
	<path fill="#303349" transform="scale(0.5 0.5)" d="M713.915 877.198L717.941 877.815C722.398 878.529 727.109 878.672 731.613 878.956C749.155 880.063 766.02 878.882 783.5 877.591C797.847 876.532 812.179 875.535 826.354 872.945C836.27 871.133 846.43 868.38 855.996 865.225C858.645 864.351 861.247 863.615 864.049 863.75C863.472 864.956 862.608 865.232 861.5 865.815L860.601 866.3C852.595 870.513 842.865 872.39 834.078 874.288C815.501 878.301 796.089 881.563 777.073 882.444C764.003 883.05 751.261 882.463 738.25 881.556C730.449 881.011 721.923 880.86 714.276 879.195L713.915 877.198Z"/>
	<path fill="#404257" transform="scale(0.5 0.5)" d="M728.395 947.726C733.363 947.596 737.967 945.39 742.985 945.271C738.307 950.037 732.396 953.265 726 955.068L725.166 955.31C721.639 956.304 717.909 956.835 714.263 957.143L682.414 958.611L654.521 960.25L620.382 962.135C615.93 962.312 610.884 962.968 606.484 962.25C605.997 961.249 606.169 961.323 605.105 960.696C605.946 960.007 619.83 959.148 622.383 958.914L667.734 954.25L690.957 951.905C694.647 951.464 698.467 951.395 702.045 950.372C703.62 951.063 706.279 950.61 708 950.48C714.827 949.965 721.618 948.703 728.395 947.726Z"/>
	<path fill="#FFB4A2" transform="scale(0.5 0.5)" d="M867.729 821.327C868.141 822.901 869.054 826.3 868.296 827.764C866.5 831.236 858.501 831.065 858.039 834C857.937 834.647 858.554 836.353 858.702 837.074C859.322 840.098 860.005 843.297 860.156 846.372C861.085 848.406 861.767 852.814 861.03 854.978C859.668 855.092 859.233 855.372 858.125 856.101C850.584 861.059 838.509 863.509 829.764 865.38C803.3 871.041 775.472 874.165 748.368 873.311C736.978 872.952 725.651 871.57 714.329 870.343C714.442 869.563 714.585 869.129 714.888 868.419L715.445 864.5C716.723 856.694 714.955 849.328 714.964 841.538C717.204 841.356 721.96 840.472 723.848 841.616L736.762 838.435L738.182 842.518C748.175 843.116 758.479 842.48 768.46 841.941C785.605 841.016 803.012 839.655 819.828 836.044L851.082 827.683C854.32 826.846 857.624 826.363 860.922 825.838C862.519 825.584 864.586 825.405 866 824.575C867.562 823.659 867.388 822.959 867.729 821.327Z"/>
	<path fill="#E5989B" transform="scale(0.5 0.5)" d="M867.729 821.327C868.141 822.901 869.054 826.3 868.296 827.764C866.5 831.236 858.501 831.065 858.039 834C857.937 834.647 858.554 836.353 858.702 837.074C859.322 840.098 860.005 843.297 860.156 846.372L859.636 846.5L859.379 845.516L856.531 835.427C847.666 839.757 838.015 842.49 828.5 844.991C801.202 852.166 770.926 856.238 742.66 854.384C734.362 853.84 725.645 852.16 717.532 850.356C717.491 854.755 717.217 858.754 716.693 863.117C716.465 865.018 715.802 866.909 715.23 868.732L714.888 868.419L715.445 864.5C716.723 856.694 714.955 849.328 714.964 841.538C717.204 841.356 721.96 840.472 723.848 841.616L736.762 838.435L738.182 842.518C748.175 843.116 758.479 842.48 768.46 841.941C785.605 841.016 803.012 839.655 819.828 836.044L851.082 827.683C854.32 826.846 857.624 826.363 860.922 825.838C862.519 825.584 864.586 825.405 866 824.575C867.562 823.659 867.388 822.959 867.729 821.327Z"/>
	<path fill="#050507" transform="scale(0.5 0.5)" d="M723.848 841.616L736.762 838.435L738.182 842.518C734.224 842.071 727.074 843.364 723.848 841.616Z"/>
	<path fill="#6D6875" transform="scale(0.5 0.5)" d="M481.24 1022.42C484.293 1021.82 487.913 1022.1 491.046 1022.06L510.889 1021.95C512.183 1021.97 516.043 1022.45 517.115 1022.03C518.622 1021.44 520.331 1019.32 522.111 1018.5C527.595 1015.98 534.191 1014.21 540 1012.65C558.059 1007.8 578.101 1006.61 596.717 1005.05L653.625 1000.14L693.506 997.649C723.023 994.714 751.711 981.614 779.058 970.871C806.484 960.097 836.823 950.703 855.574 926.55C860.825 919.786 864.762 912.278 869.137 904.955C873.829 897.099 879.59 890.196 883.884 882.039C888.198 873.842 891.003 865.263 894.387 856.682L902.455 838C910.115 820.198 917.695 801.895 930.186 786.832C935.961 779.868 942.96 773.427 951.168 769.436C960.189 765.05 972.1 763.326 982.025 762.41C976.981 773.429 973.637 785.204 969.902 796.71L937.208 904.996C930.021 928.49 923.45 951.796 912.456 973.901C905.756 987.373 895.76 1002.14 884.583 1012.23C884.698 1015.75 880.664 1017.77 881.899 1020.88L875.371 1022.28L867.433 1022.92L481.24 1022.42Z"/>
	<path fill="#303349" transform="scale(0.5 0.5)" d="M875.371 1022.28L874.752 1021.54C874.657 1019.69 874.704 1019.39 875.551 1017.75C878.911 1016.33 881.649 1014.36 884.583 1012.23C884.698 1015.75 880.664 1017.77 881.899 1020.88L875.371 1022.28Z"/>
	<path fill="white" transform="scale(0.5 0.5)" d="M454.632 250.777C456.867 250.584 458.49 250.391 460.663 251.036L461.184 251.136C467.945 258.48 467.963 269.639 469.559 279C470.219 282.87 471.346 286.672 471.75 290.58L472.314 291.187L478 291.021C478.306 291.312 478.654 291.599 478.919 291.926L478.662 292.663C477.47 295.722 472.434 298.783 470.059 301.25C466.517 304.93 464.056 309.174 462.42 314L462.166 314.735C460.324 320.312 460.4 328.331 463.046 333.613L464.116 335.477L464.508 336.132C469.2 343.661 479.284 349.07 487.75 350.98L491.75 351.596C495.9 352.115 499.92 352.002 503.707 353.942L504.602 354.395L470.579 365.105L472.04 367.368C467.972 369.082 464.926 370.333 460.418 370.087L460.144 370.789C459.459 372.211 458.636 372.874 457.149 373.28L454.658 373.816L454.536 776.587L434.236 776.566L438.458 777.25C441.125 779.879 443.831 782.364 445.9 785.505C451.367 793.806 452.436 802.182 453.528 811.75C453.82 814.315 454.451 817.467 453.842 820C453.616 820.942 453.114 821.662 452.26 822.106C445.073 825.841 337.484 823.391 317.779 824.442C315.829 823.628 314.278 822.475 312.596 821.231C310.927 818.57 310.013 815.602 309.644 812.5C308.487 802.78 309.273 790.898 315.661 783.005L316.075 782.5L317.509 780.763C318.369 779.803 320.139 777.79 321.25 777.211C322.101 776.769 325.532 776.966 326.671 776.901L338.972 776.731L338.809 767.106C338.728 756.467 341.883 747.567 351.336 741.827C354.364 739.989 358.139 738.556 360.618 736.032C361.751 732.188 344.614 649.636 342.258 640.531L313.851 542.285L299.552 492.5C296.526 481.874 293.687 470.957 289.924 460.563C289.518 459.44 288.406 455.952 287.625 455.223C286.897 454.544 280.206 453.839 278.75 453.447C277.197 453.029 275.687 452.365 274.248 451.653C270.916 450.006 268.257 447.248 267.111 443.67L266.91 443C265.602 438.738 265.732 433.87 266.498 429.5C267.611 423.149 269.948 416.648 275.568 412.977C283.097 408.059 290.373 410.735 298.28 412.644L332.399 381.661L381.921 334.407L407.771 310.057C416.004 302.288 424.066 294.802 431.485 286.224C429.348 281.662 426.553 273.008 428.388 268.028C431.297 260.133 439.37 256.483 446.316 253.046C448.978 251.922 451.815 251.365 454.632 250.777Z"/>
	<path fill="#E5989B" transform="scale(0.5 0.5)" d="M454.632 250.777C456.867 250.584 458.49 250.391 460.663 251.036L461.184 251.136C467.945 258.48 467.963 269.639 469.559 279C470.219 282.87 471.346 286.672 471.75 290.58L472.314 291.187L478 291.021C478.306 291.312 478.654 291.599 478.919 291.926L478.662 292.663C477.47 295.722 472.434 298.783 470.059 301.25C466.517 304.93 464.056 309.174 462.42 314L462.166 314.735C460.324 320.312 460.4 328.331 463.046 333.613L464.116 335.477L464.508 336.132C469.2 343.661 479.284 349.07 487.75 350.98L491.75 351.596C495.9 352.115 499.92 352.002 503.707 353.942L504.602 354.395L470.579 365.105L472.04 367.368C467.972 369.082 464.926 370.333 460.418 370.087C459.237 369.223 458.213 368.181 457.148 367.179C447.578 369.242 438.447 373.96 428.934 376.389C426.455 369.879 423.635 362.757 423.084 355.766C422.623 349.917 423.539 344.527 424.725 338.844C425.601 334.647 426.568 330.27 428.291 326.335C430.203 321.967 432.671 317.592 435.555 313.795C437.271 311.534 439.562 309.195 440.965 306.75C441.591 305.657 441.565 305.35 441.237 304.25C439.807 304.077 439.321 303.854 438.086 304.75C437.065 305.49 436.033 307.04 435.217 308.016L428.186 316.685C421.733 324.444 414.883 332.653 407.839 339.827L374.643 371.645L340.397 404.624L318.282 425.09L317.919 424.498C315.667 420.913 312.658 417.486 308.5 416.199L307.651 416.75C309.835 419.837 312.377 422.7 314.48 425.818C314.846 426.361 315.996 427.782 316.123 428.356C316.404 429.624 315.755 432.716 315.522 434.075C314.452 440.294 311.652 444.127 307.924 448.992C309.009 452.278 309.409 455.567 310.107 458.931L313.867 474.745L319.015 493.397C320.103 497.302 321.337 501.04 321.415 505.13C323.883 516.675 328.061 527.815 331.134 539.209L344.838 588.542L358.746 640.555C366.486 667.395 375.577 694.434 380.931 721.858C381.977 727.219 382.444 732.6 383.212 737.997C385.13 737.74 388.737 736.778 390.564 737.225C392.414 737.678 394.951 739.518 396.456 740.673C402.264 745.134 406.838 751.403 407.818 758.781C408.617 764.799 407.749 770.764 406.788 776.692L434.236 776.566L438.458 777.25C441.125 779.879 443.831 782.364 445.9 785.505C451.367 793.806 452.436 802.182 453.528 811.75C453.82 814.315 454.451 817.467 453.842 820C453.616 820.942 453.114 821.662 452.26 822.106C445.073 825.841 337.484 823.391 317.779 824.442C315.829 823.628 314.278 822.475 312.596 821.231C310.927 818.57 310.013 815.602 309.644 812.5C308.487 802.78 309.273 790.898 315.661 783.005L316.075 782.5L317.509 780.763C318.369 779.803 320.139 777.79 321.25 777.211C322.101 776.769 325.532 776.966 326.671 776.901L338.972 776.731L338.809 767.106C338.728 756.467 341.883 747.567 351.336 741.827C354.364 739.989 358.139 738.556 360.618 736.032C361.751 732.188 344.614 649.636 342.258 640.531L313.851 542.285L299.552 492.5C296.526 481.874 293.687 470.957 289.924 460.563C289.518 459.44 288.406 455.952 287.625 455.223C286.897 454.544 280.206 453.839 278.75 453.447C277.197 453.029 275.687 452.365 274.248 451.653C270.916 450.006 268.257 447.248 267.111 443.67L266.91 443C265.602 438.738 265.732 433.87 266.498 429.5C267.611 423.149 269.948 416.648 275.568 412.977C283.097 408.059 290.373 410.735 298.28 412.644L332.399 381.661L381.921 334.407L407.771 310.057C416.004 302.288 424.066 294.802 431.485 286.224C429.348 281.662 426.553 273.008 428.388 268.028C431.297 260.133 439.37 256.483 446.316 253.046C448.978 251.922 451.815 251.365 454.632 250.777Z"/>
	<path fill="#FFCDB2" transform="scale(0.5 0.5)" d="M430.143 295.25L431.055 294.984C432.258 294.739 433.286 294.962 434.144 295.853C435.178 296.927 435.395 297.815 435.474 299.25C434.525 300.647 434.262 300.847 432.75 301.608C431.891 301.759 431.116 301.591 430.25 301.491C428.857 300.468 428.262 299.863 427.612 298.25C428.237 296.389 428.591 296.339 430.143 295.25Z"/>
	<path fill="#4D343D" transform="scale(0.5 0.5)" d="M457.148 367.179C461.625 366.831 466.247 366.317 470.579 365.105L472.04 367.368C467.972 369.082 464.926 370.333 460.418 370.087C459.237 369.223 458.213 368.181 457.148 367.179Z"/>
	<path fill="#FFB4A2" transform="scale(0.5 0.5)" d="M321.415 505.13C317.828 499.961 316.286 492.896 314.115 487.013L300.809 452.003C302.716 450.685 305.454 450.414 307.566 449.205L307.924 448.992C309.009 452.278 309.409 455.567 310.107 458.931L313.867 474.745L319.015 493.397C320.103 497.302 321.337 501.04 321.415 505.13Z"/>
	<path fill="#FFB4A2" transform="scale(0.5 0.5)" d="M454.632 250.777C456.867 250.584 458.49 250.391 460.663 251.036L461.184 251.136C467.945 258.48 467.963 269.639 469.559 279C470.219 282.87 471.346 286.672 471.75 290.58L472.314 291.187L472.287 291.29C467.471 292.133 462.948 292.897 458.344 294.623C455.072 290.486 453.734 282.993 452.367 277.97C450.134 269.769 447.473 261.472 446.316 253.046C448.978 251.922 451.815 251.365 454.632 250.777Z"/>
	<path fill="#E5989B" transform="scale(0.5 0.5)" d="M633.869 303.336C641.402 298.835 648.117 293.238 655.858 289.055C660.722 286.426 665.849 284.491 671 282.514C696.973 272.547 724.094 270.437 751.255 277.25C778.898 284.184 801.507 301.798 815.968 326.188C823.527 338.935 826.856 352.504 827.491 367.25C827.866 375.949 827.449 384.755 828.176 393.43C830.037 415.614 839.859 437.608 853.577 454.943C870.164 475.903 893.42 490.865 917.338 502.083C931.876 508.902 946.717 514.727 960.891 522.372C968.624 526.544 976.381 530.474 983.341 535.911C995.126 545.117 1005.06 558.669 1011.29 572.19C1019.82 583.338 1022.32 599.855 1020.52 613.51C1019.58 620.607 1016.39 626.565 1013.47 633C1010.63 639.243 1007.89 645.663 1004.41 651.582C996.067 665.795 984.133 678.653 971 688.594L955.367 700.311C951.314 715.662 943.182 734.441 928.953 742.712C916.972 749.676 904.821 752.271 891.27 754.288C885.003 755.221 878.424 756.249 872.079 755.93L866.858 757.064L866.887 800.17C866.97 807.039 866.564 814.547 867.729 821.327C867.388 822.959 867.562 823.659 866 824.575C864.586 825.405 862.519 825.584 860.922 825.838C857.624 826.363 854.32 826.846 851.082 827.683L819.828 836.044C803.012 839.655 785.605 841.016 768.46 841.941C758.479 842.48 748.175 843.116 738.182 842.518L736.762 838.435L742.134 837.164C755.213 833.862 769.026 829.525 778.82 819.821C783.236 815.444 786.901 810.07 790.658 805.115C796.644 797.221 802.432 789.314 807.508 780.792C804.248 775.024 801.985 769.421 797.99 764C787.551 749.836 772.782 743.235 757.696 735.577C746.869 751.908 736.166 769.302 719.221 779.973C714.894 782.698 710.178 784.575 705.437 786.444L690.997 792.282L689.691 785.833C689.318 784.038 689.177 782.348 689.098 780.518L688.828 777.949C687.509 775.862 684.602 774.711 682.5 773.504C678.898 771.436 673.15 768.507 670.817 765.005C669.044 762.343 669.655 758.564 669.526 755.5C669.295 750.027 668.193 743.605 664.932 739.081C662.046 735.076 657.812 731.775 654.082 728.574C646.199 721.807 638.262 714.55 635.654 704.046C632.6 691.743 636.018 679.77 643.241 669.665C645.796 666.09 648.905 662.889 651.09 659.064L651.358 658.576C656.549 649.945 663.631 643.141 669.96 635.381C673.758 630.724 676.96 625.571 680.884 620.991C682.699 615.627 680.571 608.766 680.037 603.223C679.726 599.996 679.412 596.662 679.451 593.421C679.455 593.084 679.37 591.587 679.519 591.281C679.954 590.384 681.298 589.116 681.961 588.31L688.706 584.683C694.41 580.972 700.552 576.487 705.142 571.477C710.809 565.291 714.606 557.848 718.557 550.51C722.132 543.871 726.437 536.227 727.974 528.802L728.133 528C728.956 523.98 729.649 519.715 729.18 515.614L728.373 505.343C728.845 502.752 729.372 500.173 730.655 497.849C728.844 495.067 728.395 492.402 725.406 490.569C728.889 487.378 733.08 484.937 736.932 482.202C743.782 477.338 749.842 472.241 755.617 466.121C758.037 463.556 760.842 460.593 762.344 457.373C763.435 455.033 763.334 452.348 764.259 449.978L764.504 449.378C765.519 447 769.756 445.969 772 445.012C774.62 443.894 777.082 442.686 779.488 441.153C786.6 433.718 793.504 425.542 796.021 415.223L796.177 414.555C797.472 409.167 796.711 404.935 795.021 399.703C793.41 394.713 788.187 385.493 783.29 383.214C781.562 382.411 779.386 382.508 777.75 381.434C777.354 381.174 776.309 380.141 776.167 379.75C775.913 379.054 776.136 376.875 776.125 376.042C776.08 372.559 776.171 369.009 775.659 365.558C774.484 357.629 772.135 349.029 768.61 341.808L768.333 341.25C767.654 339.859 767.167 338.248 765.75 337.466C765.576 339.54 768.145 344.419 768.872 346.484C769.931 349.491 770.74 352.642 771.403 355.759C773.248 364.433 773.737 373.07 773.277 381.918C774.277 384.33 779.526 385.451 781.864 386.926C783.723 388.098 785.238 389.879 786.732 391.473C781.523 391.55 773.995 392.125 769.887 388.579C769.333 387.398 769.354 386.786 769.507 385.5C770.31 384.487 771.272 383.461 771.516 382.154L771.628 381.418C770.293 360.177 763.442 334.783 749.963 318.022C738.281 303.495 721.028 295.998 702.75 294.192C692.908 293.22 676.213 293.635 668.198 300.487C666.592 301.859 665.257 303.507 665.22 305.732C665.151 309.896 667.69 314.6 669.551 318.21C677.248 333.148 687.191 345.22 698.734 357.338C706.398 365.383 715.657 373.397 725.301 378.965C731.495 382.542 738.144 385.139 744.792 387.718C749.101 389.389 753.54 391.281 758.05 392.322C765.965 394.149 774.899 394.515 782.989 394.738L775.857 396.75C769.315 398.243 758.742 397.825 752.246 396.246C749.443 395.565 746.614 393.834 743.86 392.809C737.557 390.464 731.467 388.609 725.349 385.69C720.973 383.602 716.517 380.611 711.959 379.064L711.053 378.772C706.768 376.029 702.421 373.676 698.365 370.548C693.226 366.586 688.71 361.734 684.196 357.091L667.48 339.25C658.783 329.182 652.033 315.069 641.141 307.255C638.952 305.684 636.301 304.477 633.869 303.336Z"/>
	<path fill="#FFB4A2" transform="scale(0.5 0.5)" d="M797.611 441.75L798.135 441.78C799.587 444.194 800.616 446.824 802.24 449.141C803.311 450.667 806.804 453.571 807.25 455.033C807.404 455.537 807.25 456.088 807.25 456.615L805.75 457.078L805.401 456.766C801.428 453.151 797.898 447.168 797.611 441.75Z"/>
	<path fill="#E3676A" transform="scale(0.5 0.5)" d="M779.488 441.153C779.904 442.804 779.938 444.085 778.977 445.61C777.588 447.815 774.419 448.884 772.125 449.898C769.635 449.596 766.901 449.78 764.504 449.378C765.519 447 769.756 445.969 772 445.012C774.62 443.894 777.082 442.686 779.488 441.153Z"/>
	<path fill="#FFCDB2" transform="scale(0.5 0.5)" d="M964.683 677.102C966.538 670.041 969.856 663.264 970.921 656C971.768 650.22 971.087 644.535 971.059 638.732L971.526 639.875C975.891 652.228 972.667 664.633 967.098 675.919L964.683 677.102Z"/>
	<path fill="#FFCDB2" transform="scale(0.5 0.5)" d="M890.359 641.257C894.379 643.141 897.853 652.732 899.398 657.005C901.828 663.721 904.545 671.022 905.973 678C909 692.793 908.713 711.078 902.383 724.983C901.572 726.765 900.63 728.38 899.547 730L898.992 730.915L898.161 730.435C907.795 712.82 906.905 694.163 902.446 675.172C901.141 669.616 899.911 664.184 897.91 658.827C896.611 655.348 895.062 651.844 893.443 648.5C892.478 646.505 890.876 644.17 890.477 641.993L890.359 641.257Z"/>
	<path fill="#FFCDB2" transform="scale(0.5 0.5)" d="M893.132 598.535L894.329 598.17C899.432 602.468 904.66 606.531 909.403 611.25C916.188 617.999 921.48 625.382 926.483 633.5C929.207 637.921 931.89 642.18 933.239 647.247L930.37 642.649C923.737 631.378 912.587 622.689 902.706 614.38C899.627 611.79 895.915 609.31 893.311 606.237C892.313 605.059 891.938 603.675 892.011 602.159C892.533 600.997 892.811 599.763 893.132 598.535Z"/>
	<path fill="#FFB4A2" transform="scale(0.5 0.5)" d="M967.098 675.919L968.418 675.737C977.229 667.205 985.08 658.388 991.052 647.59C993.309 643.51 995.694 638.825 996.58 634.212C998.6 623.685 993.349 612.208 990.34 602.337C989.442 599.392 989.11 596.22 988.25 593.221C987.129 589.315 985.347 585.679 983.75 581.959C982.119 578.159 980.688 574.295 978.526 570.75C973.82 563.035 966.955 556.95 961.968 549.48C967.55 551.912 974.033 559.462 978.151 563.942C986.749 573.295 993.494 583.736 998.704 595.307C1000.86 600.094 1002.86 605.272 1003.19 610.553C1003.53 615.965 1001.91 620.847 1001.7 626.131C1006.18 616.494 1009.17 603.648 1009.58 592.971C1009.84 586.136 1008.72 579.369 1011.06 572.818L1011.29 572.19C1019.82 583.338 1022.32 599.855 1020.52 613.51C1019.58 620.607 1016.39 626.565 1013.47 633C1010.63 639.243 1007.89 645.663 1004.41 651.582C996.067 665.795 984.133 678.653 971 688.594L955.367 700.311C955.931 696.487 956.56 692.508 958.045 688.919C959.78 684.726 962.506 681.065 964.683 677.102L967.098 675.919Z"/>
	<path fill="#B5838D" transform="scale(0.5 0.5)" d="M890.196 640.818L890.359 641.257L890.477 641.993C890.876 644.17 892.478 646.505 893.443 648.5C895.062 651.844 896.611 655.348 897.91 658.827C899.911 664.184 901.141 669.616 902.446 675.172C906.905 694.163 907.795 712.82 898.161 730.435C896.465 732.003 895.208 734.217 893.763 736.029C890.749 739.81 887.309 743.598 883.645 746.75L872.079 755.93L866.858 757.064L866.974 730.862C867.012 722.885 866.206 713.847 867.721 706.055C868.76 700.714 871.388 695.088 873.223 689.949L880.964 667.267L886.642 651.482C888.008 647.894 889.707 644.683 890.196 640.818Z"/>
	<path fill="#FFCDB2" transform="scale(0.5 0.5)" d="M802.749 383.045C807.611 392.995 810.002 404.467 814.029 414.841C819.13 427.983 824.399 440.824 832.043 452.764C846.832 475.863 870.34 491.381 893.851 504.527C906.24 511.454 917.177 520.061 928.644 528.323C937.245 534.519 946.521 539.686 954.681 546.505C963.758 554.09 970.715 564.211 976.652 574.364C981.765 583.109 985.912 590.712 988.698 600.551L988.211 600.181C983.925 597.235 980.551 593.217 976.505 589.914L937.912 559.014C932.42 554.885 927.595 549.964 922.443 545.436L889.731 516.734C867.2 496.789 842.333 477.003 825.813 451.478C822.898 446.974 820.615 442.002 818.32 437.167C810.254 420.175 805.404 401.633 802.749 383.045Z"/>
	<path fill="#6D6875" transform="scale(0.5 0.5)" d="M728.373 505.343C728.845 502.752 729.372 500.173 730.655 497.849C738.434 511.757 740.138 531.393 735.794 546.627C734.929 549.659 733.509 554.666 731.527 557.057C730.875 564.787 727.311 574.781 723.555 581.596C723.654 582.976 723.382 583.962 724.426 584.938L734.123 569.093C734.694 567.402 735.355 566.139 736.69 564.918C738.677 563.101 741.457 561.763 743.783 560.409C750.789 556.33 757.307 552.222 762.272 545.657C763.497 552.323 764.478 559.275 766.528 565.75C768.844 573.066 772.278 579.939 776.351 586.415L784.477 595.287C795.89 605.699 810.517 614.476 826 616.6L826.878 616.727C833.717 617.646 841.135 616.48 847.971 615.771C850.672 615.491 854.434 615.403 856.826 614.161C838.651 611.101 821.483 605.65 806.094 595.272C800.105 591.233 794.183 586.444 789.98 580.509C786.664 575.826 784.796 570.724 782.251 565.667C778.968 559.145 775.646 552.487 772.957 545.696C772.062 543.434 770.903 541.223 770.875 538.75L771.266 538.25C776.146 544.047 779.814 552.006 785.973 556.671C789.712 559.503 794.378 561.905 798.526 564.091C820.258 575.539 843.813 578.976 867.624 583.647C873.105 584.722 880.87 584.719 885.796 587.147C889.309 588.879 893.044 594.473 893.132 598.535C892.811 599.763 892.533 600.997 892.011 602.159C891.123 601.377 889.708 599.713 888.577 599.75C888.253 603.211 890.326 607.753 891.007 611.328C892.762 620.527 892.239 631.673 890.196 640.818C889.707 644.683 888.008 647.894 886.642 651.482L880.964 667.267L873.223 689.949C871.388 695.088 868.76 700.714 867.721 706.055C866.206 713.847 867.012 722.885 866.974 730.862L866.858 757.064L866.887 800.17C866.97 807.039 866.564 814.547 867.729 821.327C867.388 822.959 867.562 823.659 866 824.575C864.586 825.405 862.519 825.584 860.922 825.838C857.624 826.363 854.32 826.846 851.082 827.683L819.828 836.044C803.012 839.655 785.605 841.016 768.46 841.941C758.479 842.48 748.175 843.116 738.182 842.518L736.762 838.435L742.134 837.164C755.213 833.862 769.026 829.525 778.82 819.821C783.236 815.444 786.901 810.07 790.658 805.115C796.644 797.221 802.432 789.314 807.508 780.792C804.248 775.024 801.985 769.421 797.99 764C787.551 749.836 772.782 743.235 757.696 735.577C746.869 751.908 736.166 769.302 719.221 779.973C714.894 782.698 710.178 784.575 705.437 786.444L690.997 792.282L689.691 785.833C689.318 784.038 689.177 782.348 689.098 780.518L688.828 777.949C687.509 775.862 684.602 774.711 682.5 773.504C678.898 771.436 673.15 768.507 670.817 765.005C669.044 762.343 669.655 758.564 669.526 755.5C669.295 750.027 668.193 743.605 664.932 739.081C662.046 735.076 657.812 731.775 654.082 728.574C646.199 721.807 638.262 714.55 635.654 704.046C632.6 691.743 636.018 679.77 643.241 669.665C645.796 666.09 648.905 662.889 651.09 659.064L651.358 658.576C656.549 649.945 663.631 643.141 669.96 635.381C673.758 630.724 676.96 625.571 680.884 620.991C682.699 615.627 680.571 608.766 680.037 603.223C679.726 599.996 679.412 596.662 679.451 593.421C679.455 593.084 679.37 591.587 679.519 591.281C679.954 590.384 681.298 589.116 681.961 588.31L688.706 584.683C694.41 580.972 700.552 576.487 705.142 571.477C710.809 565.291 714.606 557.848 718.557 550.51C722.132 543.871 726.437 536.227 727.974 528.802L728.133 528C728.956 523.98 729.649 519.715 729.18 515.614L728.373 505.343Z"/>
	<path fill="#303349" transform="scale(0.5 0.5)" d="M780.986 693.75L781.354 694L781.439 694.572C781.554 697.815 778.958 701.719 776.75 703.929C776.159 703.318 776.256 703.063 776.119 702.25C777.05 699.076 778.511 696.002 780.986 693.75Z"/>
	<path fill="#E5989B" transform="scale(0.5 0.5)" d="M783.595 556.75L784.531 556.511L785.25 556.944C785.234 559.884 786.238 566.141 784.75 568.321C784.002 567.882 783.742 567.526 783.324 566.735C781.77 563.797 782.599 559.728 783.595 556.75Z"/>
	<path fill="#404257" transform="scale(0.5 0.5)" d="M688.828 777.949C693.591 779.39 699.526 781.128 703.431 784.25C702.936 785.192 703.226 784.796 702.607 785.472L697.527 784.902C694.966 786.153 692.809 785.949 690.099 785.329L689.691 785.833C689.318 784.038 689.177 782.348 689.098 780.518L688.828 777.949Z"/>
	<path fill="#E3676A" transform="scale(0.5 0.5)" d="M689.098 780.518C692.28 781.283 694.881 783.041 697.527 784.902C694.966 786.153 692.809 785.949 690.099 785.329L689.691 785.833C689.318 784.038 689.177 782.348 689.098 780.518Z"/>
	<path fill="#050507" transform="scale(0.5 0.5)" d="M711.934 569.965C713.198 568.35 715.047 566.995 716.513 565.537C719.76 562.309 724.961 555.145 729.558 554.625C730.568 554.511 730.739 554.956 731.502 555.541L731.527 557.057C725.842 562.088 720.376 569.204 712.627 570.717L711.934 569.965Z"/>
	<path fill="#050507" transform="scale(0.5 0.5)" d="M819.807 760.907L830.236 770.996C824.121 772.816 818.213 774.822 811.739 774.43L819.807 760.907Z"/>
	<path fill="#404257" transform="scale(0.5 0.5)" d="M711.934 569.965L712.627 570.717C720.376 569.204 725.842 562.088 731.527 557.057C730.875 564.787 727.311 574.781 723.555 581.596L722.794 581.728C719.702 579.029 715.704 576.592 713.245 573.3C712.341 572.09 711.698 571.494 711.934 569.965Z"/>
	<path fill="#404257" transform="scale(0.5 0.5)" d="M776.351 586.415L784.477 595.287C781.705 598.171 777.247 600.501 773.52 601.902C769.462 603.429 763.139 599.768 759.354 598.143C764.495 593.763 770.675 590.064 776.351 586.415Z"/>
	<path fill="#303349" transform="scale(0.5 0.5)" d="M734.123 569.093C736.284 570.929 737.511 573.168 739.178 575.391L746.041 584.434C742.006 587.746 738.456 591.588 732.793 590.979C729.752 590.653 726.802 588.215 724.725 586.12L724.426 584.938L734.123 569.093Z"/>
	<path fill="#E5989B" transform="scale(0.5 0.5)" d="M757.696 735.577L762.997 726.504C765.551 726.964 768.332 728.773 770.711 729.848C788.539 737.902 804.619 748.678 819.807 760.907L811.739 774.43L807.508 780.792C804.248 775.024 801.985 769.421 797.99 764C787.551 749.836 772.782 743.235 757.696 735.577Z"/>
	<path fill="white" transform="scale(0.5 0.5)" d="M-0 361.638L0 -0L57.1997 0L72.304 0L454.502 0L454.632 250.777C451.815 251.365 448.978 251.922 446.316 253.046C439.37 256.483 431.297 260.133 428.388 268.028C426.553 273.008 429.348 281.662 431.485 286.224C424.066 294.802 416.004 302.288 407.771 310.057L381.921 334.407L332.399 381.661L298.28 412.644C290.373 410.735 283.097 408.059 275.568 412.977C269.948 416.648 267.611 423.149 266.498 429.5C265.732 433.87 265.602 438.738 266.91 443L267.111 443.67C268.257 447.248 270.916 450.006 274.248 451.653C275.687 452.365 277.197 453.029 278.75 453.447C280.206 453.839 286.897 454.544 287.625 455.223C288.406 455.952 289.518 459.44 289.924 460.563C293.687 470.957 296.526 481.874 299.552 492.5L313.851 542.285L342.258 640.531C344.614 649.636 361.751 732.188 360.618 736.032C358.139 738.556 354.364 739.989 351.336 741.827C341.883 747.567 338.728 756.467 338.809 767.106L338.972 776.731L326.671 776.901L295.968 776.509L251.831 776.538L115.436 776.527C109.865 776.52 75.6615 777.282 73.4449 776L73.3488 772.465L72.75 776.309C70.6011 776.58 68.6346 776.108 66.5 776.014L53.6475 775.895L47.2473 789.878L46.9215 790.374C45.1061 793.195 43.7421 796.478 42.6854 799.665C41.6331 802.839 41.324 807.705 38.25 809.605C37.5221 808.793 37.494 808.178 37.3564 807.121L36.5437 807.054C35.0913 809.759 34.5852 813.092 33.4232 815.966C29.9902 824.458 25.5821 832.588 22.9835 841.38C20.281 840.708 17.1626 840.468 14.6353 839.398C16.3318 835.962 17.5068 832.847 18.3674 829.128C15.5191 832.14 13.5182 835.771 11.5818 839.407C9.56118 840.769 2.62757 839.877 -0 839.827L0 821.532L0 777.006L0 610.57L0 598.577L0 491.699L-0 361.638Z"/>
	<path fill="#FFCDB2" transform="scale(0.5 0.5)" d="M128.958 256.069C133.403 253.187 139.373 251.323 144.658 252.461C145.797 252.706 146.885 253.295 147.592 254.256C148.563 255.577 148.938 258.241 149.153 259.885L151.43 284.265L156.939 328.416L166.768 424.828L179.852 552.358L185.657 612.633L188.003 639.801C188.217 643.653 188.669 647.486 188.389 651.343C184.454 640.385 181.9 628.999 178.665 617.824C175.996 608.606 172.403 599.123 170.509 589.744L165.194 557.915C164.411 553.134 164.063 547.057 162.188 542.579C161.495 540.924 160.581 540.227 158.956 539.591L156.803 519.065L151.879 474.291L134.904 322.231L131.332 280.538C130.765 272.825 130.978 263.491 128.958 256.069Z"/>
	<path fill="white" transform="scale(0.5 0.5)" d="M-0 361.638L0 -0L57.1997 0L72.304 0L72.9712 239.763L73.2987 289.716C73.3438 293.393 72.4764 299.772 73.621 303.021L64.0762 311.571C62.3587 313.093 60.5551 315.008 58.5544 316.104C52.9979 321.234 46.6453 325.693 40.6501 330.298L18.0151 347.699C11.9174 352.209 5.34789 356.193 -0 361.638Z"/>
	<path fill="#E5989B" transform="scale(0.5 0.5)" d="M57.1997 0L72.304 0L72.9712 239.763L73.2987 289.716C73.3438 293.393 72.4764 299.772 73.621 303.021L64.0762 311.571C62.3587 313.093 60.5551 315.008 58.5544 316.104L57.1997 0Z"/>
	<path fill="#6D6875" transform="scale(0.5 0.5)" d="M128.958 256.069C130.978 263.491 130.765 272.825 131.332 280.538L134.904 322.231L151.879 474.291L156.803 519.065L158.956 539.591C160.581 540.227 161.495 540.924 162.188 542.579C164.063 547.057 164.411 553.134 165.194 557.915L170.509 589.744C172.403 599.123 175.996 608.606 178.665 617.824C181.9 628.999 184.454 640.385 188.389 651.343C190.352 660.26 190.13 669.743 191.061 678.827L193.947 709.444C194.645 716.336 195.811 723.593 195.867 730.5C195.882 732.275 195.502 734.23 194.492 735.719C192.351 738.88 188.683 740.256 185.047 740.833C182.119 741.298 178.732 741.254 175.77 741.025L72.9737 689.588C72.9964 692.612 73.5881 696.983 72.8473 699.832L72.7039 702.171C76.2652 701.951 78.1528 701.861 81.0172 704.341C82.3975 705.535 83.299 706.605 83.431 708.48C81.3788 715.491 78.0717 722.215 75.0646 728.859L74.072 747.521L73.8495 765.069C73.7677 767.371 73.8798 770.267 73.3488 772.465L72.75 776.309C70.6011 776.58 68.6346 776.108 66.5 776.014L53.6475 775.895L47.2473 789.878L46.9215 790.374C45.1061 793.195 43.7421 796.478 42.6854 799.665C41.6331 802.839 41.324 807.705 38.25 809.605C37.5221 808.793 37.494 808.178 37.3564 807.121L36.5437 807.054C35.0913 809.759 34.5852 813.092 33.4232 815.966C29.9902 824.458 25.5821 832.588 22.9835 841.38C20.281 840.708 17.1626 840.468 14.6353 839.398C16.3318 835.962 17.5068 832.847 18.3674 829.128C15.5191 832.14 13.5182 835.771 11.5818 839.407C9.56118 840.769 2.62757 839.877 -0 839.827L0 821.532L0 777.006L0 610.57L0 598.577L0 491.699L-0 361.638C5.34789 356.193 11.9174 352.209 18.0151 347.699L40.6501 330.298C46.6453 325.693 52.9979 321.234 58.5544 316.104C60.5551 315.008 62.3587 313.093 64.0762 311.571L73.621 303.021L128.958 256.069Z"/>
	<path fill="#FFCDB2" transform="scale(0.5 0.5)" d="M0 777.006L17.6869 776.994L9.76469 797.211C6.85599 805.412 4.25146 813.898 0 821.532L0 777.006Z"/>
	<path fill="#FFCDB2" transform="scale(0.5 0.5)" d="M58.553 699.535C62.6204 700.768 68.5238 699.803 72.8473 699.832L72.7039 702.171C76.2652 701.951 78.1528 701.861 81.0172 704.341C82.3975 705.535 83.299 706.605 83.431 708.48L82.656 708.805C80.8957 709.633 79.4035 711.671 78.0796 713.073L68.5601 723.199C65.5271 720.165 62.704 717.204 59 714.974L57.2185 713.883C53.4266 711.556 50.2898 709.542 47.8409 705.734C50.8624 704.472 56.9581 702.139 58.553 699.535Z"/>
	<path fill="#FFFAE2" transform="scale(0.5 0.5)" d="M58.553 699.535C62.6204 700.768 68.5238 699.803 72.8473 699.832L72.7039 702.171C71.6493 702.269 68.2061 702.212 67.4609 702.656C66.8072 703.046 65.7628 704.612 65.2101 705.277C62.6486 708.362 60.6514 711.663 57.2185 713.883C53.4266 711.556 50.2898 709.542 47.8409 705.734C50.8624 704.472 56.9581 702.139 58.553 699.535Z"/>
	<path fill="#E5989B" transform="scale(0.5 0.5)" d="M53.6475 775.895L64.4757 751C67.6851 743.397 70.3728 735.704 75.0646 728.859L74.072 747.521L73.8495 765.069C73.7677 767.371 73.8798 770.267 73.3488 772.465L72.75 776.309C70.6011 776.58 68.6346 776.108 66.5 776.014L53.6475 775.895Z"/>
	<path fill="white" transform="scale(0.5 0.5)" d="M47.8409 705.734C43.6248 696.741 44.5828 685.637 45.0081 675.999L59.5279 683.531L59.932 683.697C64.7143 685.105 68.6838 687.08 72.9737 689.588C72.9964 692.612 73.5881 696.983 72.8473 699.832C68.5238 699.803 62.6204 700.768 58.553 699.535C56.9581 702.139 50.8624 704.472 47.8409 705.734Z"/>
	<path fill="#E5989B" transform="scale(0.5 0.5)" d="M59.932 683.697C64.7143 685.105 68.6838 687.08 72.9737 689.588C72.9964 692.612 73.5881 696.983 72.8473 699.832C68.5238 699.803 62.6204 700.768 58.553 699.535C59.4766 694.119 59.9754 689.222 59.932 683.697Z"/>
	<path fill="#E5989B" transform="scale(0.5 0.5)" d="M0 491.699C3.48291 492.479 9.16758 492.983 11.5028 495.75C12.8882 500.128 12.9196 505.578 13.2495 510.156L14.7269 535.159C15.1812 544.77 16.2507 554.293 15.8685 563.932L15.1487 563.75C12.0336 569.656 10.3959 576.597 8.60049 582.997L3.29197 600.666C1.92402 600.415 1.05815 599.44 0 598.577L0 491.699Z"/>
	<path fill="#E5989B" transform="scale(0.5 0.5)" d="M158.956 539.591C160.581 540.227 161.495 540.924 162.188 542.579C164.063 547.057 164.411 553.134 165.194 557.915L170.509 589.744C172.403 599.123 175.996 608.606 178.665 617.824C181.9 628.999 184.454 640.385 188.389 651.343C190.352 660.26 190.13 669.743 191.061 678.827L193.947 709.444C194.645 716.336 195.811 723.593 195.867 730.5C195.882 732.275 195.502 734.23 194.492 735.719C192.351 738.88 188.683 740.256 185.047 740.833C182.119 741.298 178.732 741.254 175.77 741.025C175.961 736.862 175.211 732.417 174.852 728.259L173.09 708.589L169.577 673.612L158.956 539.591Z"/>
	<path fill="#E58257" transform="scale(0.5 0.5)" d="M169.577 673.612C170.956 674.646 171.661 674.958 172.015 676.75C172.729 680.368 172.632 684.321 173.01 688C173.543 693.19 175.889 704.034 173.09 708.589L169.577 673.612Z"/>
	<path fill="white" transform="scale(0.5 0.5)" d="M3.29197 600.666L8.60049 582.997C10.3959 576.597 12.0336 569.656 15.1487 563.75L15.8685 563.932L19.3681 607.505L24.6782 678.547L25.4721 700.444C25.4972 704.832 25.0232 709.594 25.5285 713.938C25.9919 717.923 28.134 722.421 30.9856 725.25C31.5114 725.772 36.2974 730.065 36.3068 730.199C36.4068 731.616 33.6505 736.877 33.0314 738.437L17.6869 776.994L0 777.006L0 610.57L0 598.577C1.05815 599.44 1.92402 600.415 3.29197 600.666Z"/>
	<path fill="#FFCDB2" transform="scale(0.5 0.5)" d="M0 598.577C1.05815 599.44 1.92402 600.415 3.29197 600.666C2.49506 603.889 1.7567 607.744 0 610.57L0 598.577Z"/>
</svg>
